<?xml version="1.0" encoding="UTF-8" standalone="no"?>
<!-- Created with Inkscape (http://www.inkscape.org/) -->

<svg
   xmlns:dc="http://purl.org/dc/elements/1.1/"
   xmlns:cc="http://creativecommons.org/ns#"
   xmlns:rdf="http://www.w3.org/1999/02/22-rdf-syntax-ns#"
   xmlns:svg="http://www.w3.org/2000/svg"
   xmlns="http://www.w3.org/2000/svg"
   xmlns:sodipodi="http://sodipodi.sourceforge.net/DTD/sodipodi-0.dtd"
   xmlns:inkscape="http://www.inkscape.org/namespaces/inkscape"
   width="187.03391mm"
   height="138.7079mm"
   viewBox="0 0 187.03391 138.7079"
   version="1.1"
   id="svg4572"
   inkscape:version="0.92.4 (5da689c313, 2019-01-14)"
   sodipodi:docname="OTRAG_Logo_Colour.svg">
  <defs
     id="defs4566" />
  <sodipodi:namedview
     id="base"
     pagecolor="#ffffff"
     bordercolor="#666666"
     borderopacity="1.0"
     inkscape:pageopacity="0.0"
     inkscape:pageshadow="2"
     inkscape:zoom="0.70710678"
     inkscape:cx="186.5309"
     inkscape:cy="113.17227"
     inkscape:document-units="mm"
     inkscape:current-layer="layer1"
     showgrid="false"
     fit-margin-top="10"
     fit-margin-right="10"
     fit-margin-bottom="10"
     fit-margin-left="10"
     inkscape:window-width="1366"
     inkscape:window-height="715"
     inkscape:window-x="-8"
     inkscape:window-y="-8"
     inkscape:window-maximized="1" />
  <metadata
     id="metadata4569">
    <rdf:RDF>
      <cc:Work
         rdf:about="">
        <dc:format>image/svg+xml</dc:format>
        <dc:type
           rdf:resource="http://purl.org/dc/dcmitype/StillImage" />
        <dc:title />
        <dc:date />
        <dc:description />
        <cc:license
           rdf:resource="http://creativecommons.org/licenses/by-sa/4.0/" />
      </cc:Work>
      <cc:License
         rdf:about="http://creativecommons.org/licenses/by-sa/4.0/">
        <cc:permits
           rdf:resource="http://creativecommons.org/ns#Reproduction" />
        <cc:permits
           rdf:resource="http://creativecommons.org/ns#Distribution" />
        <cc:requires
           rdf:resource="http://creativecommons.org/ns#Notice" />
        <cc:requires
           rdf:resource="http://creativecommons.org/ns#Attribution" />
        <cc:permits
           rdf:resource="http://creativecommons.org/ns#DerivativeWorks" />
        <cc:requires
           rdf:resource="http://creativecommons.org/ns#ShareAlike" />
      </cc:License>
    </rdf:RDF>
  </metadata>
  <g
     inkscape:label="Layer 1"
     inkscape:groupmode="layer"
     id="layer1"
     transform="translate(-56.161614,-118.03295)">
    <path
       style="display:inline;fill:#ff4820;stroke-width:0.26458332;fill-opacity:1"
       d="m 140.54926,128.32192 c -0.20243,0.46436 1.34705,3.39712 3.98258,6.02549 1.19894,1.19567 2.93715,2.58705 4.85099,4.02041 2.02652,1.51775 6.19145,3.78273 9.36687,5.53454 1.36873,0.7551 1.53264,0.93314 4.17133,2.14302 0.50932,0.23353 1.17985,0.43201 1.49034,0.44132 0.6825,0.0205 1.5072,-1.33582 2.11305,-2.13217 0.52282,-0.68721 0.95141,-1.45254 1.28676,-2.24824 0.38485,-0.91313 1.00523,-2.05677 0.81555,-2.85869 -0.13044,-0.55143 -0.90185,-0.90788 -1.40571,-1.2994 -1.18274,-0.91901 -2.47182,-1.69809 -3.77083,-2.44377 -2.20002,-1.2629 -4.47362,-2.40387 -6.79462,-3.42758 -2.16326,-0.95412 -4.36672,-1.83634 -6.6293,-2.52246 -1.91753,-0.58149 -4.26188,-1.18673 -5.85937,-1.34281 -1.59749,-0.15608 -3.4152,-0.35402 -3.61764,0.11034 z m 32.66003,14.88332 c -0.87575,0.14175 -1.31935,1.22401 -1.76793,1.98938 -0.5102,0.87049 -1.20143,2.1988 -0.9916,2.85994 0.0927,0.29224 1.20182,1.44011 1.83483,2.13165 0.76063,0.83097 1.65049,1.54458 2.35692,2.42208 1.2582,1.56288 2.32897,3.27643 3.31809,5.02208 1.16644,2.05859 2.20895,4.19623 3.06936,6.40033 0.70158,1.79721 1.30264,3.64517 1.69491,5.53418 0.47395,2.2824 0.78196,4.61812 0.78373,6.94921 0.003,3.31473 -0.33434,6.65799 -1.09943,9.8832 -0.84448,3.55982 -2.12583,7.04625 -3.8156,10.29127 -1.0493,2.01506 -2.32632,3.63174 -3.87725,5.6054 -1.2594,1.59699 -2.60965,3.13189 -4.08228,4.53468 -1.35444,1.2902 -2.80257,2.49388 -4.34808,3.54769 -1.72579,1.17674 -3.57572,2.17402 -5.46124,3.07284 -1.07688,0.51335 -2.18633,0.96997 -3.3274,1.31805 -0.98093,0.29922 -3.00584,0.65639 -3.00584,0.65639 0,0 2.4933,-1.01479 3.67875,-1.64712 1.24539,-0.66432 2.44706,-1.4174 3.58977,-2.24596 1.4833,-1.07553 2.90092,-2.25044 4.21933,-3.52273 1.51345,-1.46052 2.93874,-3.02379 4.21369,-4.69656 1.08724,-1.42648 2.06516,-2.94389 2.90925,-4.52644 0.90907,-1.70434 1.67223,-3.49184 2.30322,-5.3175 0.61104,-1.76792 1.1006,-3.58545 1.42527,-5.42759 0.34874,-1.97867 0.5921,-3.99314 0.55446,-6.00196 -0.0609,-3.24913 -0.42052,-6.52792 -1.25987,-9.66736 -0.8523,-3.18784 -2.15886,-6.27677 -3.79023,-9.14511 -1.6454,-2.89303 -3.63909,-5.6284 -5.97351,-8.00061 -2.14905,-2.18384 -4.62309,-4.08394 -7.27604,-5.61672 -2.55995,-1.47904 -5.34392,-2.61933 -8.20209,-3.3755 -3.69592,-0.97781 -7.55575,-1.56682 -11.37708,-1.45107 -3.67873,0.11142 -7.34665,0.92294 -10.84792,2.05723 -2.75211,0.8916 -5.39808,2.1632 -7.85518,3.69018 -2.35231,1.46186 -4.55006,3.20923 -6.49743,5.17853 -1.77074,1.79069 -3.32347,3.81511 -4.64234,5.96049 -1.55032,2.52188 -2.82081,5.23467 -3.78815,8.03246 -0.76362,2.20856 -1.30875,4.51091 -1.56477,6.83369 -0.32659,2.96307 -0.28574,5.98082 0.0496,8.94292 0.35274,3.11596 0.98801,6.23124 2.05211,9.18104 1.12312,3.11339 2.67896,6.09024 4.51911,8.84132 1.76162,2.6337 3.8613,5.06115 6.17119,7.23005 2.27158,2.13292 4.73459,4.13164 7.47778,5.60959 3.07949,1.65917 6.46688,2.76542 9.87653,3.54669 3.39396,0.77768 6.90575,1.14323 10.38743,1.10242 3.09906,-0.0363 6.19402,-0.52929 9.22035,-1.19775 2.59286,-0.57271 5.12042,-1.43878 7.59695,-2.39675 1.8114,-0.70068 3.60459,-1.47723 5.28986,-2.44259 2.5065,-1.43576 4.91513,-3.07521 7.11375,-4.9487 2.20936,-1.88263 4.23356,-4.00005 6.04414,-6.26882 1.67113,-2.09402 3.20236,-4.32877 4.40427,-6.72314 1.94619,-3.87705 3.6983,-7.9539 4.46879,-12.22304 0.81642,-4.52361 0.65115,-9.22734 0.0911,-13.7898 -0.41464,-3.37793 -1.34287,-6.70246 -2.53473,-9.89023 -1.05566,-2.82348 -2.48233,-5.51116 -4.05271,-8.08417 -0.95703,-1.56807 -2.08281,-3.0325 -3.25246,-4.44908 -1.18409,-1.43409 -2.74388,-3.24116 -3.79958,-4.08551 -1.05569,-0.84436 -1.37897,-1.4199 -2.22378,-1.28317 z m 49.82122,84.53679 c -0.70624,0.61391 -1.6153,1.46514 -1.47276,2.38999 0.15817,1.02619 1.09401,1.77299 2.35675,2.03676 0.66939,0.13982 2.06787,0.16033 3.10365,0.15284 1.0376,-0.008 2.20095,-0.002 3.10658,-0.19812 0.61356,-0.13314 1.27104,-0.32337 1.72438,-0.75773 0.73434,-0.70358 1.37067,-1.72149 1.3457,-2.73818 -0.0127,-0.51662 -0.35714,-1.02193 -0.7513,-1.35614 -0.47361,-0.40159 -1.08517,-0.52908 -1.75516,-0.62417 -0.87002,-0.12348 -2.19871,-0.12081 -3.29555,-0.0572 -0.83746,0.0486 -1.60013,0.11755 -2.49431,0.33425 -0.66058,0.16009 -1.355,0.37178 -1.86798,0.8177 z M 82.795174,227.20168 c -1.32891,0.007 -3.07679,-0.10029 -3.61477,0 -0.99353,0.15182 -2.17855,0.161 -3.19929,0.51418 -1.46946,0.50843 -2.47773,1.05313 -4.0783,2.26446 -1.6478,1.24707 -2.67236,3.5634 -3.63647,5.55573 -0.96075,1.98538 -1.89922,3.929 -2.0929,6.27714 -0.10583,1.28314 0.51112,2.33036 1.33997,3.0856 1.22484,1.11606 3.02905,1.55292 4.72375,1.61747 0.89079,0.0339 2.54106,0.0134 3.81217,0 0.84212,-0.009 2.22355,0 2.22355,0 l 9.28264,-19.31458 c 0,0 -2.54551,-0.0113 -4.76035,0 z m 8.24394,0 -9.24621,19.31458 h 4.17055 c 5.48649,0 7.1437,-0.52909 9.45369,-2.42104 1.77529,-1.88743 3.06987,-2.78245 4.869456,-7.03781 0.63678,-1.96013 1.56971,-3.68246 1.73633,-5.05706 0.16663,-1.3746 0.10159,-2.46646 -0.66146,-3.2799 -1.469626,-1.5667 -2.784436,-1.43978 -6.222866,-1.51877 -1.19534,-0.078 -4.09949,0 -4.09949,0 z m 123.599906,0 c -0.75801,-0.013 -1.73824,-0.0721 -2.60288,0 -1.05223,0.0877 -1.91846,0.0672 -3.12619,0.46871 -2.39748,0.79707 -4.50102,2.31581 -5.95468,4.31033 -0.68963,0.94623 -3.25282,5.84651 -3.91707,7.5985 -0.25408,0.67016 -0.30822,1.15373 -0.29869,1.74305 0.009,0.5377 0.044,0.75859 0.32401,1.58027 0.32321,0.94856 0.7625,1.50808 1.85415,2.36213 0.78679,0.61555 1.90559,1.15695 2.23191,1.25159 1.27356,0.36935 4.42722,0.26932 5.64151,-0.19843 1.61758,-0.62309 2.2514,-1.20341 3.40031,-3.5357 1.5654,-2.799 2.61786,-5.49672 3.98064,-8.33438 0.80025,-1.64711 1.51389,-3.3599 2.57348,-4.85345 0.29562,-0.41669 0.67866,-0.76458 1.04077,-1.12499 0.30317,-0.30176 1.47536,-1.26763 1.47536,-1.26763 h -3.52766 c -1.01626,0 -2.33695,0.013 -3.09497,0 z m -80.03823,1.38906 c -1.23794,2.59172 -2.94012,5.76429 -3.9517,8.00365 -1.8165,4.02125 -2.57884,5.36537 -4.0783,8.45736 -0.74298,1.53208 0.26169,1.48897 1.81022,1.46451 h 6.87659 c 4.21221,-0.13467 3.45192,-0.0203 4.53512,-2.20968 1.20596,-2.5307 2.37192,-4.75267 3.50573,-7.27398 1.13381,-2.52131 2.33055,-4.64343 3.87366,-7.9716 0.52657,-1.1357 0.88921,-1.86054 -0.97771,-1.85932 -1.50839,10e-4 -6.47708,0 -8.21102,0 -1.73394,0 -2.44594,-0.2426 -3.38259,1.38906 z m -21.63847,-1.38908 c -1.55914,0.001 -4.89484,-0.0196 -6.34535,0 -1.14022,0.0154 -1.83155,0.0515 -2.19522,0.69918 -0.36058,0.64222 -0.74013,1.433 -1.03921,2.11357 -0.29908,0.68056 -0.48076,1.01811 -0.74724,1.95595 -0.11291,0.39737 -0.0777,0.76117 0.71572,0.79117 0.79346,0.03 2.08311,0.0311 2.56212,0.0589 0.98568,0.0573 1.41462,-0.0912 0.93431,0.93482 -0.45424,0.961 -2.07654,4.02367 -3.08302,6.15467 -1.09162,2.31127 -2.17423,4.59945 -2.52284,5.32267 -0.67004,1.39002 -0.0134,1.3251 1.12861,1.28366 3.4331,-0.0309 5.65577,0.018 8.08478,0 2.429,-0.018 3.63066,-0.0128 7.23728,0 0.22662,7.9e-4 0.57454,-0.29921 0.77308,-0.61547 0.83793,-1.33474 1.86427,-3.5445 2.728,-5.35058 1.05101,-2.1977 2.00991,-4.57486 2.98431,-6.67143 0.20571,-0.4426 0.52484,-0.93337 0.97307,-0.9281 1.16838,0.0137 2.45087,-0.0192 3.82302,-0.0362 1.40523,-0.0169 2.09096,-0.0345 2.77503,-1.11879 0.68406,-1.08434 1.36861,-2.39173 1.93683,-3.54087 0.24598,-0.49745 0.64787,-1.03303 -1.16582,-1.05317 -1.23522,-0.0137 -3.06371,0.038 -9.7162,0 -3.3969,-0.0169 -7.124,-0.002 -9.84126,-1e-5 z m 38.59759,2e-5 c -0.6289,0.0727 -1.28962,0.44568 -1.64946,0.94154 -0.6854,0.94448 -0.86593,1.71173 -1.87224,3.76359 -1.00631,2.05187 -1.84634,3.85046 -2.79156,5.76503 -1.27082,2.57408 -2.27855,4.71394 -3.8716,7.69307 -0.18089,0.33827 -0.22828,1.06445 0.45682,1.15135 0.68511,0.0869 2.00019,0.01 3.06648,0 2.08769,-0.0193 6.40737,0 8.37985,0 1.57201,-0.0425 1.79492,-0.0425 2.59623,-0.39481 0.44691,-0.19653 0.87401,-0.54901 1.14101,-0.91829 0.44843,-0.62022 0.63303,-1.42994 1.07694,-2.42776 0.24509,-0.55092 0.59545,-1.47607 0.83044,-2.06551 0.19062,-0.47815 0.38877,-0.8198 0.29404,-1.23093 -0.0858,-0.37246 -0.15499,-0.62206 -0.72761,-0.88625 -0.6978,-0.32196 -1.5276,-0.21057 -3.56722,-0.20671 -0.27286,5.3e-4 -2.47339,0.12353 -2.61793,0.11369 -0.43616,-0.0297 -0.18233,-0.37922 -0.0233,-0.79375 0.32812,-0.60553 0.11045,-0.6916 0.90176,-0.70977 0.7913,-0.0182 2.95059,-0.01 3.65455,-0.01 0.70396,0 2.3994,0.0154 3.03186,-0.11343 0.40068,-0.0836 0.83554,-0.17941 1.14256,-0.45011 0.89956,-0.79312 0.84308,-1.34491 1.72858,-3.15536 1.1771,-2.4211 1.26049,-3.63947 0.31316,-4.5868 -0.36383,-0.36382 -0.89796,-0.69148 -1.41955,-0.89245 -0.56154,-0.21636 -1.25764,-0.35055 -1.90253,-0.4375 -1.17184,-0.158 -2.1616,-0.10352 -3.54421,-0.14902 -1.53935,0.0451 -2.81667,-1e-5 -4.62711,-1e-5 z m 35.61648,0 c -1.7058,-0.002 -6.32606,0 -8.24807,0 -1.92201,0 -3.50191,0.14835 -4.31964,1.01026 -0.38899,0.41002 -2.1362,2.26132 -3.88245,4.11397 -1.74625,1.85264 -4.2168,4.43641 -5.4901,5.74176 -1.58661,1.60187 -3.19746,3.54048 -4.49792,4.89428 -1.20054,1.24766 -1.56202,1.64232 -2.18022,2.42982 -0.1194,0.1521 -0.13565,0.47354 0.0388,0.68368 0.26513,0.31947 1.08939,0.48265 3.85816,0.44081 2.76876,-0.0418 9.79784,0 9.79784,0 l 2.94091,-3.25304 c 1.61754,-1.67251 3.13851,-3.26197 3.38016,-3.53208 1.18112,-1.32024 3.51663,-3.78122 5.36091,-5.58674 0.55222,-0.54063 1.36121,-1.67829 1.70687,-1.56942 0.30632,0.0965 -0.33287,1.14369 -0.9898,2.77662 -0.61297,1.19331 -2.28471,4.47635 -3.5045,6.70136 -0.59396,1.08344 -1.06506,1.91171 -1.81901,3.22978 -0.14513,0.25372 -0.25738,1.06868 0.262,1.23352 1.24918,0.15185 10.73393,0.2351 11.68198,0 0.70653,-0.29985 0.88737,-0.90578 1.11776,-1.3684 1.37113,-2.7532 2.0328,-3.90948 4.62917,-9.49606 0.33815,-0.7276 1.12791,-2.4405 1.86449,-3.98839 0.73657,-1.54789 1.37008,-3.0957 1.40766,-3.43958 0.0666,-0.60923 0.004,-0.87773 -2.44533,-1.02215 -2.78995,-0.0831 -8.96383,0.002 -10.66963,0 z m 37.62222,7.40833 c -0.53662,-0.003 -2.5539,-0.006 -2.91426,0 -1.44145,0.0236 -1.9636,-0.0287 -2.96623,0.17784 -0.37512,0.0773 -0.69363,0.35985 -0.95394,0.64078 -0.63163,0.68164 -1.24211,2.13465 -1.37357,2.42569 -1.10645,2.44973 -0.97768,2.19168 -1.50636,3.26854 -0.37919,0.77234 -0.83928,1.50446 -1.19425,2.28823 -0.26095,0.57618 -0.50802,1.05 -0.76842,1.78387 -0.1154,0.3252 -0.22481,0.58485 0.17001,1.02113 0.41734,0.46115 0.84754,0.27538 3.807,0.30017 1.83491,0.0154 4.1465,0.008 5.46324,0 1.31674,-0.008 1.75014,0.16497 2.40554,-0.3534 0.42955,-0.33974 0.71215,-0.9624 0.93803,-1.33454 0.36093,-0.59464 0.70914,-1.46458 1.03729,-2.2089 0.42173,-0.95659 0.70154,-1.72474 1.19657,-2.89906 0.53158,-1.26101 1.48247,-3.26263 1.57407,-3.7915 0.16831,-0.97178 0.0733,-1.23111 -1.70791,-1.23559 -1.63034,-0.009 -1.72271,-0.0728 -3.20681,-0.0833 z"
       id="path4531"
       inkscape:connector-curvature="0"
       sodipodi:nodetypes="zsscscaasaaaazzaacaaaaaaaacaaaacaaaaaaaaaaaaaaaaaaaaaaaaaaaaaaaaaaaaaazacasasaaasasaccccccccscaccsccccaccszccscccccccaaccszccccszccszccssccccscczsccsccccszcccscccccasccccccszzccazsacccccsccczcccscccccccczccccccsccccscsccacccccc" />
  </g>
</svg>
